<mxfile host="Electron" agent="Mozilla/5.0 (Windows NT 10.0; Win64; x64) AppleWebKit/537.36 (KHTML, like Gecko) draw.io/28.2.8 Chrome/140.0.7339.240 Electron/38.4.0 Safari/537.36" version="28.2.8">
  <diagram name="Page-1" id="DMmZsId1sAFYa-Mnj5yp">
    <mxGraphModel dx="1426" dy="841" grid="1" gridSize="10" guides="1" tooltips="1" connect="1" arrows="1" fold="1" page="1" pageScale="1" pageWidth="850" pageHeight="1100" math="0" shadow="0">
      <root>
        <mxCell id="0" />
        <mxCell id="1" parent="0" />
        <mxCell id="QcNWtMKb7XHWKu6MAuNp-1" value="" style="rounded=0;whiteSpace=wrap;html=1;shadow=1;fontSize=28;fillColor=#f5f5f5;strokeColor=#666666;fontColor=#333333;" parent="1" vertex="1">
          <mxGeometry x="240" y="120" width="580" height="310" as="geometry" />
        </mxCell>
        <mxCell id="QcNWtMKb7XHWKu6MAuNp-2" value="Comments" style="rounded=0;whiteSpace=wrap;html=1;shadow=1;fontSize=21;fillColor=#fff2cc;strokeColor=#d6b656;" parent="1" vertex="1">
          <mxGeometry x="523.75" y="248" width="270" height="54" as="geometry" />
        </mxCell>
        <mxCell id="QcNWtMKb7XHWKu6MAuNp-3" value="" style="rounded=0;whiteSpace=wrap;html=1;shadow=1;fontSize=28;fillColor=#f5f5f5;strokeColor=#666666;fontColor=#333333;" parent="1" vertex="1">
          <mxGeometry x="860" y="120" width="150" height="310" as="geometry" />
        </mxCell>
        <mxCell id="QcNWtMKb7XHWKu6MAuNp-4" style="edgeStyle=orthogonalEdgeStyle;rounded=0;orthogonalLoop=1;jettySize=auto;html=1;entryX=0;entryY=0.5;entryDx=0;entryDy=0;" parent="1" source="QcNWtMKb7XHWKu6MAuNp-2" target="QcNWtMKb7XHWKu6MAuNp-7" edge="1">
          <mxGeometry relative="1" as="geometry" />
        </mxCell>
        <mxCell id="QcNWtMKb7XHWKu6MAuNp-5" style="edgeStyle=orthogonalEdgeStyle;rounded=0;orthogonalLoop=1;jettySize=auto;html=1;entryX=0;entryY=0.25;entryDx=0;entryDy=0;" parent="1" source="QcNWtMKb7XHWKu6MAuNp-6" target="QcNWtMKb7XHWKu6MAuNp-7" edge="1">
          <mxGeometry relative="1" as="geometry" />
        </mxCell>
        <mxCell id="QcNWtMKb7XHWKu6MAuNp-6" value="Posts" style="rounded=0;whiteSpace=wrap;html=1;shadow=1;fontSize=21;fillColor=#dae8fc;strokeColor=#6c8ebf;" parent="1" vertex="1">
          <mxGeometry x="523.75" y="180" width="270" height="54" as="geometry" />
        </mxCell>
        <mxCell id="QcNWtMKb7XHWKu6MAuNp-7" value="Data" style="rounded=0;whiteSpace=wrap;html=1;shadow=1;fontSize=21;" parent="1" vertex="1">
          <mxGeometry x="880" y="140" width="110" height="270" as="geometry" />
        </mxCell>
        <mxCell id="QcNWtMKb7XHWKu6MAuNp-8" style="edgeStyle=orthogonalEdgeStyle;rounded=0;orthogonalLoop=1;jettySize=auto;html=1;exitX=1;exitY=0.5;exitDx=0;exitDy=0;entryX=0;entryY=0.5;entryDx=0;entryDy=0;fontSize=18;" parent="1" source="QcNWtMKb7XHWKu6MAuNp-11" target="QcNWtMKb7XHWKu6MAuNp-2" edge="1">
          <mxGeometry relative="1" as="geometry" />
        </mxCell>
        <mxCell id="QcNWtMKb7XHWKu6MAuNp-9" style="edgeStyle=orthogonalEdgeStyle;rounded=0;orthogonalLoop=1;jettySize=auto;html=1;exitX=1;exitY=0.5;exitDx=0;exitDy=0;fontSize=18;" parent="1" source="QcNWtMKb7XHWKu6MAuNp-11" target="QcNWtMKb7XHWKu6MAuNp-6" edge="1">
          <mxGeometry relative="1" as="geometry" />
        </mxCell>
        <mxCell id="QcNWtMKb7XHWKu6MAuNp-10" style="edgeStyle=orthogonalEdgeStyle;rounded=0;orthogonalLoop=1;jettySize=auto;html=1;entryX=0;entryY=0.5;entryDx=0;entryDy=0;" parent="1" source="QcNWtMKb7XHWKu6MAuNp-11" target="QcNWtMKb7XHWKu6MAuNp-17" edge="1">
          <mxGeometry relative="1" as="geometry" />
        </mxCell>
        <mxCell id="QcNWtMKb7XHWKu6MAuNp-11" value="Router" style="rounded=0;whiteSpace=wrap;html=1;shadow=1;fontSize=18;" parent="1" vertex="1">
          <mxGeometry x="390" y="140" width="80" height="270" as="geometry" />
        </mxCell>
        <mxCell id="QcNWtMKb7XHWKu6MAuNp-12" style="edgeStyle=orthogonalEdgeStyle;rounded=0;orthogonalLoop=1;jettySize=auto;html=1;exitX=1;exitY=0.5;exitDx=0;exitDy=0;fontSize=18;" parent="1" source="QcNWtMKb7XHWKu6MAuNp-13" target="QcNWtMKb7XHWKu6MAuNp-11" edge="1">
          <mxGeometry relative="1" as="geometry" />
        </mxCell>
        <mxCell id="QcNWtMKb7XHWKu6MAuNp-13" value="Auth&amp;nbsp;&lt;div&gt;Middleware&lt;/div&gt;" style="rounded=0;whiteSpace=wrap;html=1;shadow=1;fontSize=18;" parent="1" vertex="1">
          <mxGeometry x="260" y="140" width="100" height="270" as="geometry" />
        </mxCell>
        <mxCell id="QcNWtMKb7XHWKu6MAuNp-14" value="" style="edgeStyle=orthogonalEdgeStyle;rounded=0;orthogonalLoop=1;jettySize=auto;html=1;" parent="1" source="QcNWtMKb7XHWKu6MAuNp-15" target="QcNWtMKb7XHWKu6MAuNp-13" edge="1">
          <mxGeometry relative="1" as="geometry" />
        </mxCell>
        <mxCell id="QcNWtMKb7XHWKu6MAuNp-15" value="Request" style="rounded=0;whiteSpace=wrap;html=1;shadow=1;strokeWidth=1;fillColor=#f8cecc;fontSize=25;strokeColor=#b85450;fontStyle=1" parent="1" vertex="1">
          <mxGeometry x="80" y="255" width="130" height="40" as="geometry" />
        </mxCell>
        <mxCell id="QcNWtMKb7XHWKu6MAuNp-16" style="edgeStyle=orthogonalEdgeStyle;rounded=0;orthogonalLoop=1;jettySize=auto;html=1;entryX=0;entryY=0.75;entryDx=0;entryDy=0;" parent="1" source="QcNWtMKb7XHWKu6MAuNp-17" target="QcNWtMKb7XHWKu6MAuNp-7" edge="1">
          <mxGeometry relative="1" as="geometry" />
        </mxCell>
        <mxCell id="QcNWtMKb7XHWKu6MAuNp-17" value="Moderation" style="rounded=0;whiteSpace=wrap;html=1;shadow=1;fontSize=21;fillColor=#d5e8d4;strokeColor=#82b366;" parent="1" vertex="1">
          <mxGeometry x="523.75" y="316" width="270" height="54" as="geometry" />
        </mxCell>
        <mxCell id="QcNWtMKb7XHWKu6MAuNp-18" value="Server" style="rounded=0;whiteSpace=wrap;html=1;shadow=0;fontSize=20;fillColor=#f5f5f5;strokeColor=#666666;fontColor=#333333;fontStyle=1" parent="1" vertex="1">
          <mxGeometry x="240" y="90" width="580" height="30" as="geometry" />
        </mxCell>
        <mxCell id="QcNWtMKb7XHWKu6MAuNp-19" value="Database" style="rounded=0;whiteSpace=wrap;html=1;shadow=0;fontSize=20;fillColor=#f5f5f5;strokeColor=#666666;fontColor=#333333;fontStyle=1" parent="1" vertex="1">
          <mxGeometry x="860" y="90" width="150" height="30" as="geometry" />
        </mxCell>
      </root>
    </mxGraphModel>
  </diagram>
</mxfile>
